<svg width="24" height="24" viewBox="0 0 24 24" fill="none" xmlns="http://www.w3.org/2000/svg">
<path d="M3 19H1V18C1 16.1362 2.27477 14.57 4 14.126" stroke="#252525" stroke-width="1.5" stroke-linecap="round" stroke-linejoin="round"/>
<path d="M6 10.8293C4.83481 10.4175 4 9.30622 4 8C4 6.69378 4.83481 5.58255 6 5.17072" stroke="#252525" stroke-width="1.5" stroke-linecap="round" stroke-linejoin="round"/>
<path d="M21 19H23V18C23 16.1362 21.7252 14.57 20 14.126" stroke="#252525" stroke-width="1.5" stroke-linecap="round" stroke-linejoin="round"/>
<path d="M18 5.17072C19.1652 5.58255 20 6.69378 20 8C20 9.30622 19.1652 10.4175 18 10.8293" stroke="#252525" stroke-width="1.5" stroke-linecap="round" stroke-linejoin="round"/>
<path d="M14 14H10C7.79086 14 6 15.7909 6 18V19H18V18C18 15.7909 16.2091 14 14 14Z" stroke="#252525" stroke-width="1.5" stroke-linecap="round" stroke-linejoin="round"/>
<path d="M12 11C13.6569 11 15 9.65685 15 8C15 6.34315 13.6569 5 12 5C10.3431 5 9 6.34315 9 8C9 9.65685 10.3431 11 12 11Z" stroke="#252525" stroke-width="1.5" stroke-linecap="round" stroke-linejoin="round"/>
</svg>
