<svg width="24" height="24" viewBox="0 0 24 24" fill="none" xmlns="http://www.w3.org/2000/svg">
<path d="M12 3C7.02944 3 3 7.02944 3 12C3 16.9706 7.02944 21 12 21C16.9706 21 21 16.9706 21 12C21 7.02944 16.9706 3 12 3Z" stroke="#252525" stroke-width="1.5"/>
<path d="M12 12C13.6569 12 15 10.6569 15 9C15 7.34315 13.6569 6 12 6C10.3431 6 9 7.34315 9 9C9 10.6569 10.3431 12 12 12Z" stroke="#252525" stroke-width="1.5"/>
<path d="M6 18.7083C6 17.0886 7.17172 15 9 15H15C16.8283 15 18 17.0886 18 18.7083" stroke="#252525" stroke-width="1.5"/>
</svg>
