<svg width="24" height="24" viewBox="0 0 24 24" fill="none" xmlns="http://www.w3.org/2000/svg">
<path d="M8.5 5.93776L7.25 3.77271" stroke="#252525" stroke-width="1.5" stroke-linecap="round" stroke-linejoin="round"/>
<path d="M5.9385 8.5L3.77344 7.25" stroke="#252525" stroke-width="1.5" stroke-linecap="round" stroke-linejoin="round"/>
<path d="M5 12H2.5" stroke="#252525" stroke-width="1.5" stroke-linecap="round" stroke-linejoin="round"/>
<path d="M5.9385 15.5L3.77344 16.75" stroke="#252525" stroke-width="1.5" stroke-linecap="round" stroke-linejoin="round"/>
<path d="M8.5 18.0623L7.25 20.2273" stroke="#252525" stroke-width="1.5" stroke-linecap="round" stroke-linejoin="round"/>
<path d="M12 19V21.5" stroke="#252525" stroke-width="1.5" stroke-linecap="round" stroke-linejoin="round"/>
<path d="M16.75 20.2273L15.5 18.0623" stroke="#252525" stroke-width="1.5" stroke-linecap="round" stroke-linejoin="round"/>
<path d="M20.2276 16.75L18.0625 15.5" stroke="#252525" stroke-width="1.5" stroke-linecap="round" stroke-linejoin="round"/>
<path d="M19 12H21.5" stroke="#252525" stroke-width="1.5" stroke-linecap="round" stroke-linejoin="round"/>
<path d="M20.2276 7.25L18.0625 8.5" stroke="#252525" stroke-width="1.5" stroke-linecap="round" stroke-linejoin="round"/>
<path d="M15 15V15.01M16.7501 3.77271L15.5001 5.93776" stroke="#252525" stroke-width="1.5" stroke-linecap="round" stroke-linejoin="round"/>
<path d="M12 5V2.5" stroke="#252525" stroke-width="1.5" stroke-linecap="round" stroke-linejoin="round"/>
<path d="M8 11V11.01" stroke="#252525" stroke-width="1.5" stroke-linecap="round" stroke-linejoin="round"/>
<path d="M11 15C11 15.5523 10.5523 16 10 16C9.44772 16 9 15.5523 9 15C9 14.4477 9.44772 14 10 14C10.5523 14 11 14.4477 11 15Z" stroke="#252525" stroke-width="1.5" stroke-linecap="round" stroke-linejoin="round"/>
<path d="M15 10C15 11.1046 14.1046 12 13 12C11.8954 12 11 11.1046 11 10C11 8.89543 11.8954 8 13 8C14.1046 8 15 8.89543 15 10Z" stroke="#252525" stroke-width="1.5" stroke-linecap="round" stroke-linejoin="round"/>
<path d="M12 19C15.866 19 19 15.866 19 12C19 8.13401 15.866 5 12 5C8.13401 5 5 8.13401 5 12C5 15.866 8.13401 19 12 19Z" stroke="#252525" stroke-width="1.5" stroke-linecap="round" stroke-linejoin="round"/>
</svg>
